<?xml version="1.0" encoding="utf-8"?>
<!-- Generator: Adobe Illustrator 24.0.0, SVG Export Plug-In . SVG Version: 6.00 Build 0)  -->
<svg version="1.0" id="Capa_1" xmlns="http://www.w3.org/2000/svg" xmlns:xlink="http://www.w3.org/1999/xlink" x="0px" y="0px"
	 viewBox="0 0 300 300" style="enable-background:new 0 0 300 300;" xml:space="preserve">
<style type="text/css">
	.st0{fill:#666666;}
	.st1{fill:none;stroke:#666666;stroke-width:10;stroke-miterlimit:10;}
</style>
<g>
	<path class="st0" d="M150,21c34.5,0,66.9,13.4,91.2,37.8C265.6,83.1,279,115.5,279,150s-13.4,66.9-37.8,91.2
		C216.9,265.6,184.5,279,150,279s-66.9-13.4-91.2-37.8C34.4,216.9,21,184.5,21,150s13.4-66.9,37.8-91.2C83.1,34.4,115.5,21,150,21
		 M150,9C72.1,9,9,72.1,9,150s63.1,141,141,141s141-63.1,141-141S227.9,9,150,9L150,9z"/>
</g>
<g>
	<circle class="st0" cx="83" cy="112" r="14"/>
</g>
<g>
	<circle class="st0" cx="206" cy="112" r="14"/>
</g>
<g>
	<path class="st0" d="M77.4,183.5C72.8,180.5,72.8,180.5,77.4,183.5c0,0,28,18.4,66.6,18.5c39.3,0.2,67.6-18.5,67.6-18.5
		c4.6-3,4.6-3,0,0c0,0-28.4,18.7-67.6,18.5C105.3,201.9,77.4,183.5,77.4,183.5z"/>
	<path class="st1" d="M77.4,183.5C72.8,180.5,72.8,180.5,77.4,183.5c0,0,28,18.4,66.6,18.5c39.3,0.2,67.6-18.5,67.6-18.5
		c4.6-3,4.6-3,0,0c0,0-28.4,18.7-67.6,18.5C105.3,201.9,77.4,183.5,77.4,183.5z"/>
</g>
</svg>
